<svg width="982" height="609" viewBox="0 0 982 609" fill="none" xmlns="http://www.w3.org/2000/svg">
<mask id="mask0_3363_7195" style="mask-type:luminance" maskUnits="userSpaceOnUse" x="434" y="71" width="524" height="525">
<path d="M941.331 342.08L920.249 337.77C911.421 335.967 904.789 328.491 904.218 319.519C903.033 302.147 899.695 285.215 894.424 268.987C891.657 260.411 894.995 251 902.506 246.03L920.425 234.112C929.736 227.955 932.327 215.377 926.178 206.053L903.428 171.618C897.279 162.294 884.718 159.743 875.407 165.9L857.444 177.775C849.934 182.744 839.964 182.173 833.2 176.236C820.376 165.021 806.146 155.302 790.598 147.429C782.561 143.339 778.345 134.368 780.145 125.484L784.449 104.374C786.689 93.4231 779.618 82.7362 768.682 80.4933L728.276 72.2253C717.34 69.9823 706.668 77.0629 704.428 88.0137L700.124 109.124C698.323 117.963 690.901 124.604 681.941 125.22C664.593 126.407 647.684 129.75 631.521 134.983C622.913 137.798 613.558 134.412 608.595 126.891L596.737 108.904C590.588 99.5802 578.027 96.9854 568.716 103.186L534.283 125.968C524.972 132.125 522.425 144.703 528.573 154.026L540.432 172.014C545.395 179.534 544.824 189.517 538.895 196.29C527.695 209.132 518.033 223.425 510.127 238.95C506.087 246.998 497.083 251.22 488.255 249.461L467.174 245.151C456.238 242.908 445.565 249.988 443.325 260.939L435.068 301.4C432.829 312.35 439.9 323.037 450.836 325.28L471.917 329.59C480.745 331.393 487.377 338.826 487.992 347.842C489.134 365.169 492.471 382.145 497.742 398.329C500.553 406.949 497.171 416.317 489.705 421.33L471.741 433.205C462.43 439.362 459.883 451.94 466.032 461.263L488.738 495.699C494.931 505.022 507.492 507.573 516.803 501.416L534.722 489.498C542.276 484.528 552.202 485.1 558.966 491.081C571.79 502.296 586.02 512.015 601.524 519.843C609.561 523.889 613.822 532.949 612.021 541.789L607.717 562.899C605.477 573.849 612.548 584.58 623.484 586.779L663.89 595.047C674.826 597.246 685.498 590.166 687.738 579.215L692.042 558.105C693.843 549.265 701.266 542.668 710.269 542.009C727.573 540.865 744.483 537.479 760.645 532.245C769.209 529.431 778.608 532.773 783.571 540.338L795.429 558.325C801.622 567.648 814.139 570.243 823.494 564.086L857.883 541.305C867.194 535.148 869.785 522.57 863.593 513.246L851.69 495.259C846.728 487.739 847.299 477.799 853.228 470.983C864.471 458.185 874.133 443.892 881.995 428.367C886.08 420.319 895.039 416.097 903.867 417.9L924.992 422.21C935.928 424.453 946.645 417.372 948.841 406.422L957.054 365.961C959.338 355.01 952.267 344.279 941.331 342.08ZM624.582 264.589C662.704 225.052 725.597 223.953 765.081 262.083C804.565 300.256 805.663 363.234 767.584 402.771C729.462 442.308 666.569 443.452 627.085 405.278C587.558 367.148 586.46 304.17 624.582 264.589Z" fill="white"/>
</mask>
<g mask="url(#mask0_3363_7195)">
<path d="M959.382 70.0703H432.785V597.378H959.382V70.0703Z" fill="#D9E4FF"/>
</g>
<mask id="mask1_3363_7195" style="mask-type:luminance" maskUnits="userSpaceOnUse" x="87" y="235" width="373" height="374">
<path d="M435.332 489.761L422.331 481.537C416.885 478.107 414.338 471.422 416.227 465.265C419.828 453.347 421.892 441.208 422.463 429.026C422.771 422.605 427.382 417.152 433.663 415.745L448.683 412.314C456.457 410.555 461.376 402.815 459.619 395.03L453.119 366.224C451.362 358.44 443.632 353.514 435.815 355.273L420.794 358.66C414.514 360.067 408.014 357.165 404.983 351.491C399.274 340.76 392.203 330.645 383.814 321.454C379.466 316.704 378.939 309.579 382.408 304.126L390.621 291.108C394.882 284.335 392.861 275.408 386.142 271.142L361.239 255.397C354.519 251.131 345.56 253.154 341.3 259.883L333.087 272.901C329.661 278.354 322.985 280.905 316.836 279.014C304.934 275.408 292.812 273.341 280.647 272.769C274.19 272.461 268.788 267.843 267.383 261.554L264.001 246.513C262.244 238.729 254.514 233.804 246.741 235.607L217.973 242.072C210.199 243.831 205.324 251.571 207.037 259.399L210.419 274.44C211.824 280.729 208.926 287.238 203.216 290.273C192.5 296.034 182.398 303.114 173.219 311.47C168.476 315.824 161.405 316.352 155.959 312.922L142.958 304.654C136.195 300.388 127.279 302.411 123.019 309.14L107.252 334.076C102.991 340.848 105.012 349.776 111.731 354.042L124.732 362.266C130.178 365.696 132.725 372.337 130.836 378.538C127.191 390.413 125.171 402.595 124.6 414.733C124.292 421.198 119.681 426.607 113.4 428.059L98.3799 431.445C90.6061 433.204 85.6871 440.945 87.4439 448.729L93.9001 477.491C95.6568 485.319 103.431 490.201 111.204 488.442L126.225 485.055C132.549 483.648 139.006 486.551 142.036 492.268C147.746 502.999 154.817 513.114 163.205 522.306C167.553 527.055 168.08 534.18 164.655 539.633L156.442 552.651C152.181 559.38 154.158 568.352 160.921 572.618L185.824 588.406C192.544 592.672 201.503 590.649 205.763 583.876L213.976 570.858C217.402 565.405 224.078 562.854 230.227 564.745C242.085 568.352 254.251 570.419 266.373 570.99C272.829 571.298 278.231 575.916 279.636 582.205L283.018 597.246C284.775 605.074 292.505 609.956 300.323 608.197L329.09 601.688C336.864 599.929 341.783 592.188 340.026 584.404L336.644 569.363C335.239 563.074 338.137 556.565 343.803 553.531C354.563 547.813 364.621 540.733 373.8 532.333C378.587 527.979 385.615 527.451 391.061 530.882L404.105 539.106C410.824 543.372 419.784 541.393 424.044 534.62L439.811 509.684C444.072 502.999 442.095 494.027 435.332 489.761ZM243.271 357.604C278.758 340.848 321.053 356.065 337.786 391.6C354.519 427.135 339.323 469.487 303.836 486.243C268.349 502.999 226.054 487.782 209.321 452.247C192.588 416.712 207.784 374.316 243.271 357.604Z" fill="white"/>
</mask>
<g mask="url(#mask1_3363_7195)">
<path d="M461.375 233.848H85.7305V610H461.375V233.848Z" fill="#D9E4FF"/>
</g>
<mask id="mask2_3363_7195" style="mask-type:luminance" maskUnits="userSpaceOnUse" x="249" y="0" width="238" height="238">
<path d="M477.054 151.123L468.094 146.725C464.361 144.878 462.253 140.788 463 136.698C464.493 128.781 464.932 120.777 464.449 112.905C464.186 108.727 466.777 104.901 470.73 103.537L480.172 100.283C485.047 98.6118 487.683 93.2903 486.014 88.3647L479.821 70.2893C478.152 65.4076 472.794 62.7689 467.919 64.4841L458.476 67.7385C454.523 69.1019 450.131 67.6946 447.76 64.2202C443.324 57.7113 438.053 51.6862 431.992 46.3647C428.874 43.5941 427.996 39.0642 429.84 35.326L434.232 26.3543C436.516 21.6925 434.584 16.0632 429.928 13.8203L412.756 5.42032C408.1 3.13341 402.522 5.06848 400.239 9.73026L395.847 18.702C394.002 22.4402 389.917 24.5952 385.833 23.8035C377.927 22.3082 369.934 21.8245 362.072 22.3082C357.9 22.5721 354.079 19.9774 352.717 16.0193L349.467 6.56377C347.798 1.6821 342.44 -0.956636 337.565 0.758545L319.514 6.9156C314.639 8.5868 312.004 13.9522 313.717 18.8339L316.967 28.2894C318.328 32.2475 316.923 36.6454 313.453 38.9763C306.953 43.4182 300.936 48.6956 295.622 54.7647C292.855 57.8872 288.331 58.7668 284.598 56.9197L275.638 52.5218C270.983 50.2349 265.405 52.17 263.121 56.8317L254.733 74.0275C252.449 78.6893 254.381 84.3186 259.037 86.5615L267.996 90.9594C271.73 92.8065 273.838 96.8966 273.091 101.031C271.598 108.947 271.115 116.951 271.642 124.823C271.905 129.001 269.314 132.827 265.361 134.191L255.919 137.445C251.043 139.116 248.408 144.482 250.121 149.364L256.314 167.439C257.983 172.365 263.341 174.959 268.216 173.288L277.659 170.034C281.612 168.67 286.003 170.078 288.375 173.552C292.811 180.061 298.081 186.086 304.142 191.407C307.261 194.178 308.139 198.708 306.294 202.49L301.902 211.462C299.619 216.124 301.551 221.753 306.207 223.996L323.379 232.396C328.035 234.639 333.656 232.748 335.896 228.086L340.288 219.114C342.133 215.376 346.217 213.265 350.346 214.013C358.251 215.508 366.201 215.948 374.062 215.464C378.235 215.2 382.056 217.795 383.417 221.753L386.667 231.208C388.336 236.134 393.695 238.729 398.57 237.058L416.621 230.813C421.496 229.141 424.131 223.776 422.418 218.894L419.168 209.439C417.806 205.481 419.212 201.083 422.682 198.708C429.182 194.266 435.199 188.989 440.513 182.919C443.28 179.797 447.804 178.917 451.537 180.765L460.496 185.162C465.152 187.449 470.774 185.514 473.013 180.852L481.402 163.657C483.642 158.995 481.71 153.41 477.054 151.123ZM343.934 79.5689C365.63 66.2872 393.958 73.06 407.222 94.7856C420.529 116.511 413.722 144.878 392.026 158.159C370.329 171.485 342.001 164.668 328.737 142.943C315.474 121.217 322.281 92.8505 343.934 79.5689Z" fill="white"/>
</mask>
<g mask="url(#mask2_3363_7195)">
<path d="M487.683 -1H248.32V238.685H487.683V-1Z" fill="#D9E4FF"/>
</g>
<mask id="mask3_3363_7195" style="mask-type:luminance" maskUnits="userSpaceOnUse" x="87" y="119" width="239" height="318">
<path d="M159.385 308.962H221.092V228.525L159.385 308.962ZM212.484 436.589V374.359H87.752V309.402L235.63 119.545H285.083V308.962H325.006V374.359H285.083V436.589H212.484Z" fill="white"/>
</mask>
<g mask="url(#mask3_3363_7195)">
<path d="M325.006 119.545H87.752V436.589H325.006V119.545Z" fill="url(#paint0_linear_3363_7195)"/>
</g>
<mask id="mask4_3363_7195" style="mask-type:luminance" maskUnits="userSpaceOnUse" x="356" y="116" width="237" height="320">
<path d="M519.79 276.331C519.79 248.009 509.689 183.624 474.465 183.667C440.427 183.711 428.701 247.217 428.701 276.331C428.701 305.973 435.992 370.094 474.465 370.402C510.655 370.666 519.79 305.181 519.79 276.331ZM592.741 276.331C592.741 299.42 589.71 320.706 583.693 340.145C577.632 359.583 569.332 376.383 558.747 390.545C548.162 404.706 535.689 415.745 521.371 423.617C507.01 431.489 491.374 435.447 474.465 435.447C457.556 435.447 441.833 431.489 427.339 423.617C412.846 415.745 400.285 404.706 389.7 390.545C379.116 376.383 370.903 359.583 365.017 340.145C359.132 320.706 356.189 299.464 356.189 276.331C356.189 253.242 359.132 231.956 365.017 212.518C370.903 193.079 379.159 176.279 389.7 162.118C400.285 147.957 412.802 136.83 427.339 128.782C441.833 120.734 457.556 116.688 474.465 116.688C491.374 116.688 507.01 120.734 521.371 128.782C535.733 136.83 548.206 147.957 558.747 162.118C569.332 176.279 577.632 193.079 583.693 212.518C589.754 231.956 592.741 253.198 592.741 276.331Z" fill="white"/>
</mask>
<g mask="url(#mask4_3363_7195)">
<path d="M592.785 116.688H356.189V435.403H592.785V116.688Z" fill="url(#paint1_linear_3363_7195)"/>
</g>
<mask id="mask5_3363_7195" style="mask-type:luminance" maskUnits="userSpaceOnUse" x="628" y="119" width="238" height="318">
<path d="M700.125 308.962H761.832V228.525L700.125 308.962ZM753.224 436.589V374.359H628.492V309.402L776.37 119.545H825.823V308.962H865.746V374.359H825.823V436.589H753.224Z" fill="white"/>
</mask>
<g mask="url(#mask5_3363_7195)">
<path d="M865.703 119.545H628.449V436.589H865.703V119.545Z" fill="url(#paint2_linear_3363_7195)"/>
</g>
<mask id="mask6_3363_7195" style="mask-type:luminance" maskUnits="userSpaceOnUse" x="333" y="529" width="296" height="66">
<path d="M589.753 560.523H603.148C604.861 560.523 606.355 559.687 607.628 558.06C608.858 556.432 609.517 554.321 609.517 551.771C609.517 549.132 608.814 547.065 607.365 545.526C605.915 543.986 604.378 543.195 602.709 543.195H589.753V560.523ZM575.128 593.815V530.265H603.719C606.706 530.265 609.473 530.881 611.976 532.156C614.48 533.431 616.72 535.059 618.564 537.082C620.409 539.105 621.858 541.392 622.912 543.986C623.966 546.537 624.493 549.132 624.493 551.771C624.493 553.75 624.274 555.641 623.791 557.444C623.308 559.247 622.649 560.962 621.727 562.59C620.848 564.217 619.75 565.668 618.476 566.943C617.203 568.219 615.753 569.318 614.128 570.198L628.051 593.815H611.537L599.371 573.32H589.797V593.815H575.128ZM518.427 562.15C518.427 564.613 518.779 566.987 519.482 569.274C520.184 571.561 521.238 573.628 522.644 575.387C524.049 577.147 525.806 578.598 527.87 579.697C529.934 580.753 532.35 581.325 535.029 581.325C537.84 581.325 540.256 580.753 542.364 579.609C544.428 578.466 546.185 577.015 547.546 575.167C548.908 573.364 549.962 571.297 550.621 569.01C551.279 566.724 551.631 564.393 551.631 561.974C551.631 559.511 551.279 557.136 550.577 554.849C549.874 552.562 548.776 550.539 547.371 548.78C545.921 547.021 544.208 545.614 542.144 544.558C540.08 543.503 537.708 542.975 535.029 542.975C532.218 542.975 529.803 543.547 527.738 544.646C525.674 545.746 523.961 547.197 522.556 549C521.15 550.803 520.096 552.826 519.438 555.113C518.779 557.4 518.427 559.775 518.427 562.15ZM534.985 594.342C530.286 594.342 525.982 593.419 522.117 591.572C518.252 589.725 514.958 587.306 512.191 584.271C509.468 581.237 507.316 577.806 505.779 573.936C504.241 570.066 503.495 566.064 503.495 561.93C503.495 557.752 504.285 553.706 505.866 549.836C507.448 545.965 509.644 542.535 512.498 539.588C515.309 536.642 518.691 534.267 522.556 532.508C526.421 530.749 530.681 529.869 535.249 529.869C539.948 529.869 544.252 530.793 548.117 532.64C551.982 534.487 555.276 536.95 558.043 539.984C560.81 543.019 562.918 546.493 564.367 550.363C565.861 554.233 566.607 558.192 566.607 562.194C566.607 566.372 565.817 570.418 564.236 574.288C562.655 578.158 560.459 581.588 557.648 584.535C554.837 587.482 551.499 589.856 547.634 591.66C543.813 593.463 539.553 594.342 534.985 594.342ZM461.947 560.523H475.342C477.055 560.523 478.548 559.687 479.822 558.06C481.052 556.432 481.711 554.321 481.711 551.771C481.711 549.132 481.008 547.065 479.559 545.526C478.109 543.986 476.572 543.195 474.903 543.195H461.947V560.523ZM447.278 593.815V530.265H475.869C478.856 530.265 481.623 530.881 484.126 532.156C486.674 533.387 488.87 535.059 490.714 537.082C492.559 539.105 494.008 541.392 495.062 543.986C496.116 546.537 496.643 549.132 496.643 551.771C496.643 553.75 496.424 555.641 495.941 557.444C495.457 559.247 494.799 560.962 493.876 562.59C492.998 564.217 491.9 565.668 490.626 566.943C489.353 568.219 487.903 569.318 486.278 570.198L500.201 593.815H483.687L471.521 573.32H461.947V593.815H447.278ZM402.084 560.523H415.48C417.193 560.523 418.686 559.687 419.96 558.06C421.189 556.432 421.848 554.321 421.848 551.771C421.848 549.132 421.145 547.065 419.696 545.526C418.247 543.986 416.709 543.195 415.041 543.195H402.084V560.523ZM387.415 593.815V530.265H416.007C418.993 530.265 421.76 530.881 424.264 532.156C426.811 533.387 429.007 535.059 430.852 537.082C432.696 539.105 434.146 541.392 435.2 543.986C436.254 546.537 436.781 549.132 436.781 551.771C436.781 553.75 436.561 555.641 436.078 557.444C435.595 559.247 434.936 560.962 434.014 562.59C433.135 564.217 432.037 565.668 430.764 566.943C429.49 568.219 428.041 569.318 426.416 570.198L440.338 593.815H423.824L411.659 573.32H402.084V593.815H387.415ZM378.499 580.929V593.815H333.877V530.265H377.665V543.151H348.546V555.509H373.58V567.427H348.546V580.929H378.499Z" fill="white"/>
</mask>
<g mask="url(#mask6_3363_7195)">
<path d="M628.007 529.914H333.877V594.343H628.007V529.914Z" fill="url(#paint3_linear_3363_7195)"/>
</g>
<mask id="mask7_3363_7195" style="mask-type:luminance" maskUnits="userSpaceOnUse" x="0" y="454" width="327" height="25">
<path d="M317.451 471.422H0V461.79H317.451V459.152C317.451 456.777 319.384 454.842 321.756 454.842H326.06V478.327H321.756C319.384 478.327 317.451 476.391 317.451 474.017V471.422Z" fill="white"/>
</mask>
<g mask="url(#mask7_3363_7195)">
<path d="M326.06 454.842H0V478.327H326.06V454.842Z" fill="url(#paint4_linear_3363_7195)"/>
</g>
<mask id="mask8_3363_7195" style="mask-type:luminance" maskUnits="userSpaceOnUse" x="325" y="424" width="78" height="85">
<path d="M355.134 424.805H402.391V508.453H355.222C338.664 508.453 325.137 494.907 325.137 478.327V454.842C325.137 438.35 338.62 424.805 355.134 424.805Z" fill="white"/>
</mask>
<g mask="url(#mask8_3363_7195)">
<path d="M402.391 424.805H325.137V508.453H402.391V424.805Z" fill="#7D9EF2"/>
</g>
<mask id="mask9_3363_7195" style="mask-type:luminance" maskUnits="userSpaceOnUse" x="364" y="420" width="36" height="93">
<path d="M384.298 471.862C384.298 472.477 384.254 473.049 384.254 473.665C384.254 473.049 384.254 472.433 384.298 471.862ZM374.24 420.538C374.372 420.538 374.504 420.538 374.635 420.582C374.899 420.538 375.163 420.494 375.426 420.494H398.089C400.46 420.494 398.747 428.234 398.703 430.609L398.44 503.57C398.44 505.945 400.46 512.762 398.089 512.762H375.426C375.206 512.762 374.943 512.762 374.723 512.718C374.548 512.762 374.416 512.762 374.24 512.762C368.662 512.762 364.139 492.136 364.139 466.628C364.139 441.164 368.662 420.538 374.24 420.538Z" fill="white"/>
</mask>
<g mask="url(#mask9_3363_7195)">
<path d="M400.46 420.494H364.139V512.762H400.46V420.494Z" fill="url(#paint5_linear_3363_7195)"/>
</g>
<mask id="mask10_3363_7195" style="mask-type:luminance" maskUnits="userSpaceOnUse" x="387" y="420" width="22" height="93">
<path d="M398.088 420.537C403.666 420.537 408.189 441.163 408.189 466.671C408.189 492.135 403.666 512.805 398.088 512.805C392.51 512.805 387.986 492.179 387.986 466.671C387.986 441.163 392.51 420.537 398.088 420.537Z" fill="white"/>
</mask>
<g mask="url(#mask10_3363_7195)">
<path d="M408.189 420.537H387.986V512.761H408.189V420.537Z" fill="#2596be"/>
</g>
<mask id="mask11_3363_7195" style="mask-type:luminance" maskUnits="userSpaceOnUse" x="655" y="454" width="327" height="25">
<path d="M663.714 461.789H982V471.421H663.714V474.06C663.714 476.434 661.781 478.37 659.41 478.37H655.105V454.885H659.41C661.781 454.885 663.714 456.82 663.714 459.195V461.789Z" fill="white"/>
</mask>
<g mask="url(#mask11_3363_7195)">
<path d="M982 454.84H655.105V478.325H982V454.84Z" fill="url(#paint6_linear_3363_7195)"/>
</g>
<mask id="mask12_3363_7195" style="mask-type:luminance" maskUnits="userSpaceOnUse" x="578" y="424" width="78" height="85">
<path d="M625.722 424.805H578.465V508.453H625.635C642.192 508.453 655.72 494.907 655.72 478.327V454.842C655.72 438.35 642.236 424.805 625.722 424.805Z" fill="white"/>
</mask>
<g mask="url(#mask12_3363_7195)">
<path d="M655.72 424.805H578.465V508.453H655.72V424.805Z" fill="#7D9EF2"/>
</g>
<mask id="mask13_3363_7195" style="mask-type:luminance" maskUnits="userSpaceOnUse" x="581" y="420" width="36" height="93">
<path d="M582.77 420.494H605.432C605.696 420.494 605.959 420.538 606.223 420.582C606.354 420.538 606.486 420.538 606.618 420.538C612.196 420.538 616.719 441.164 616.719 466.672C616.719 492.136 612.196 512.806 606.618 512.806C606.442 512.806 606.267 512.806 606.135 512.762C605.915 512.806 605.696 512.806 605.432 512.806H582.77C580.398 512.806 582.418 505.989 582.418 503.614L582.155 430.653C582.111 428.234 580.398 420.494 582.77 420.494Z" fill="white"/>
</mask>
<g mask="url(#mask13_3363_7195)">
<path d="M616.72 420.494H580.398V512.762H616.72V420.494Z" fill="url(#paint7_linear_3363_7195)"/>
</g>
<mask id="mask14_3363_7195" style="mask-type:luminance" maskUnits="userSpaceOnUse" x="572" y="420" width="21" height="93">
<path d="M582.769 420.539C577.192 420.539 572.668 441.165 572.668 466.673C572.668 492.137 577.192 512.807 582.769 512.807C588.347 512.807 592.871 492.181 592.871 466.673C592.827 441.165 588.347 420.539 582.769 420.539Z" fill="white"/>
</mask>
<g mask="url(#mask14_3363_7195)">
<path d="M592.871 420.539H572.668V512.763H592.871V420.539Z" fill="#2596be"/>
</g>
<path fill-rule="evenodd" clip-rule="evenodd" d="M398.528 473.27C399.714 473.27 400.724 476.436 400.724 480.35C400.724 484.264 399.758 487.431 398.528 487.431C397.342 487.431 396.332 484.264 396.332 480.35C396.332 476.436 397.298 473.27 398.528 473.27Z" fill="url(#paint8_linear_3363_7195)"/>
<path fill-rule="evenodd" clip-rule="evenodd" d="M398.528 445.826C399.714 445.826 400.724 448.993 400.724 452.907C400.724 456.821 399.758 459.987 398.528 459.987C397.342 459.987 396.332 456.821 396.332 452.907C396.332 448.993 397.298 445.826 398.528 445.826Z" fill="url(#paint9_linear_3363_7195)"/>
<path fill-rule="evenodd" clip-rule="evenodd" d="M582.333 475.248C583.519 475.248 584.529 477.535 584.529 480.35C584.529 483.164 583.562 485.451 582.333 485.451C581.147 485.451 580.137 483.164 580.137 480.35C580.137 477.535 581.103 475.248 582.333 475.248Z" fill="url(#paint10_linear_3363_7195)"/>
<path fill-rule="evenodd" clip-rule="evenodd" d="M582.333 448.068C583.519 448.068 584.529 450.267 584.529 452.95C584.529 455.633 583.562 457.832 582.333 457.832C581.147 457.832 580.137 455.633 580.137 452.95C580.137 450.267 581.103 448.068 582.333 448.068Z" fill="url(#paint11_linear_3363_7195)"/>
<path d="M582.331 475.248H550.27V485.451H582.331V475.248Z" fill="url(#paint12_linear_3363_7195)"/>
<path d="M582.331 448.068H550.27V457.788H582.331V448.068Z" fill="url(#paint13_linear_3363_7195)"/>
<path fill-rule="evenodd" clip-rule="evenodd" d="M550.27 475.248C551.456 475.248 552.466 477.535 552.466 480.35C552.466 483.164 551.5 485.451 550.27 485.451C549.084 485.451 548.074 483.164 548.074 480.35C548.074 477.535 549.04 475.248 550.27 475.248Z" fill="#2596be"/>
<path fill-rule="evenodd" clip-rule="evenodd" d="M550.27 448.068C551.456 448.068 552.466 450.267 552.466 452.95C552.466 455.633 551.5 457.832 550.27 457.832C549.084 457.832 548.074 455.633 548.074 452.95C548.074 450.267 549.04 448.068 550.27 448.068Z" fill="#2596be"/>
<mask id="mask15_3363_7195" style="mask-type:luminance" maskUnits="userSpaceOnUse" x="482" y="14" width="221" height="71">
<path d="M692.483 68.4867V56.1286H702.409V68.4867H692.483ZM674.388 68.4867V56.1286H684.314V68.4867H674.388ZM652.34 69.2344C648.958 69.2344 645.62 68.7066 642.327 67.6071C639.033 66.5077 636.266 64.9244 633.982 62.8574L638.286 55.425C640.702 57.0962 643.073 58.3716 645.357 59.2951C647.641 60.2187 649.881 60.6585 651.989 60.6585C653.57 60.6585 654.756 60.3946 655.634 59.8229C656.513 59.2511 656.908 58.4595 656.908 57.404C656.908 56.3485 656.381 55.5129 655.283 54.8532C654.185 54.2375 652.296 53.5339 649.573 52.8302C646.894 52.0826 644.654 51.3349 642.81 50.6313C640.965 49.9276 639.472 49.136 638.286 48.3004C637.144 47.4208 636.31 46.4533 635.782 45.3538C635.255 44.2543 635.036 42.9349 635.036 41.3957C635.036 39.3726 635.431 37.5255 636.266 35.8543C637.056 34.1831 638.198 32.7758 639.604 31.5884C641.009 30.4449 642.678 29.5213 644.654 28.8617C646.587 28.202 648.695 27.8941 650.979 27.8941C653.965 27.8941 656.732 28.2899 659.367 29.1255C661.959 29.9172 664.462 31.4124 666.922 33.5234L662.222 40.8239C659.938 39.2407 657.918 38.1412 656.161 37.3936C654.404 36.6899 652.692 36.3381 651.023 36.3381C649.705 36.3381 648.607 36.602 647.685 37.1297C646.762 37.6575 646.323 38.4931 646.323 39.6805C646.323 40.78 646.806 41.6156 647.816 42.1873C648.783 42.759 650.627 43.3307 653.306 43.9904C656.117 44.7381 658.533 45.4857 660.465 46.2773C662.398 47.025 663.979 47.9046 665.209 48.8281C666.438 49.7517 667.317 50.8512 667.844 52.0386C668.415 53.27 668.678 54.6773 668.678 56.3485C668.678 60.3066 667.229 63.4291 664.286 65.76C661.3 68.0909 657.347 69.2344 652.34 69.2344ZM609.255 59.0312C610.573 59.0312 611.758 58.7234 612.856 58.1517C613.954 57.5799 614.877 56.7883 615.711 55.8208C616.502 54.8532 617.117 53.7538 617.556 52.4344C617.995 51.159 618.215 49.7957 618.215 48.3883C618.215 46.937 617.995 45.5737 617.512 44.3423C617.029 43.1109 616.37 42.0114 615.536 41.1318C614.701 40.2082 613.691 39.5046 612.505 39.0208C611.319 38.537 610.046 38.2732 608.684 38.2732C607.015 38.2732 605.434 38.7569 603.853 39.7684C602.316 40.736 601.13 42.0993 600.339 43.7705V51.9506C601.13 53.9737 602.36 55.6449 604.029 57.0522C605.61 58.3276 607.366 59.0312 609.255 59.0312ZM613.34 69.2344C610.309 69.2344 607.674 68.6187 605.478 67.3433C603.238 66.0679 601.525 64.3087 600.339 62.0218V84.627H588.218V28.6857H598.758V35.1507C600.208 32.8638 602.052 31.1046 604.248 29.8292C606.444 28.5538 609.035 27.9381 612.066 27.9381C614.745 27.9381 617.204 28.4659 619.444 29.5213C621.684 30.5768 623.617 32.0282 625.286 33.8753C626.911 35.7224 628.228 37.8774 629.151 40.3842C630.073 42.891 630.556 45.5737 630.556 48.4763C630.556 51.4669 630.117 54.1936 629.282 56.7443C628.404 59.2511 627.218 61.4501 625.725 63.2972C624.188 65.1443 622.387 66.5956 620.279 67.6511C618.083 68.7066 615.799 69.2344 613.34 69.2344ZM552.072 48.6082C552.072 51.7307 552.906 54.2375 554.575 56.1726C556.244 58.0637 558.352 59.0312 560.943 59.0312C562.217 59.0312 563.359 58.7674 564.413 58.2836C565.467 57.7559 566.389 57.0522 567.18 56.1726C567.971 55.2491 568.585 54.1496 569.025 52.8742C569.464 51.5988 569.727 50.1915 569.727 48.6522C569.727 45.5297 568.893 43.0229 567.224 41.0878C565.555 39.1967 563.447 38.2292 560.943 38.2292C559.67 38.2292 558.528 38.4931 557.43 38.9768C556.332 39.4606 555.41 40.2082 554.619 41.0878C553.828 42.0114 553.213 43.1109 552.774 44.3862C552.291 45.7056 552.072 47.1129 552.072 48.6082ZM560.943 69.2344C557.562 69.2344 554.531 68.6626 551.896 67.5632C549.261 66.4637 547.021 64.9684 545.176 63.0333C543.376 61.1422 541.97 58.9433 541.048 56.4365C540.125 53.9297 539.642 51.3349 539.642 48.6082C539.642 45.8815 540.125 43.2428 541.048 40.78C541.97 38.2732 543.376 36.0742 545.176 34.1831C546.977 32.292 549.217 30.7528 551.896 29.6533C554.531 28.5098 557.562 27.9381 560.943 27.9381C564.325 27.9381 567.312 28.5098 569.947 29.6533C572.582 30.7967 574.778 32.292 576.623 34.1831C578.423 36.0742 579.829 38.2732 580.795 40.78C581.761 43.2868 582.244 45.8815 582.244 48.6082C582.244 51.3349 581.761 53.9737 580.839 56.4365C579.917 58.9433 578.511 61.1422 576.711 63.0333C574.91 64.9244 572.67 66.4197 569.991 67.5632C567.312 68.7066 564.325 69.2344 560.943 69.2344ZM494.976 41.6595C494.976 43.7266 495.283 45.7496 495.898 47.6847C496.513 49.6197 497.392 51.3789 498.577 52.8742C499.763 54.3695 501.257 55.6009 503.013 56.5244C504.77 57.448 506.79 57.8878 509.074 57.8878C511.446 57.8878 513.51 57.404 515.267 56.4365C517.024 55.469 518.517 54.2375 519.659 52.6983C520.801 51.159 521.679 49.3998 522.294 47.4648C522.865 45.5297 523.172 43.5506 523.172 41.5276C523.172 39.4606 522.865 37.4376 522.25 35.5025C521.635 33.5674 520.757 31.8522 519.527 30.357C518.297 28.8617 516.848 27.6742 515.091 26.7947C513.334 25.9151 511.358 25.4753 509.074 25.4753C506.703 25.4753 504.638 25.9591 502.882 26.8826C501.125 27.8062 499.675 29.0376 498.49 30.5768C497.304 32.0721 496.425 33.8313 495.854 35.7664C495.24 37.6575 494.976 39.6365 494.976 41.6595ZM508.986 68.9705C504.99 68.9705 501.344 68.1789 498.094 66.6396C494.8 65.0564 491.989 63.0333 489.706 60.4386C487.378 57.8878 485.577 54.9852 484.304 51.6868C483.03 48.3883 482.371 45.0019 482.371 41.5276C482.371 38.0093 483.03 34.5789 484.391 31.2805C485.709 27.9821 487.597 25.0795 490.013 22.6166C492.429 20.1098 495.24 18.1308 498.534 16.6355C501.827 15.1402 505.385 14.3926 509.294 14.3926C513.291 14.3926 516.936 15.1842 520.186 16.7235C523.48 18.3067 526.291 20.3737 528.575 22.9245C530.902 25.5193 532.703 28.4219 533.933 31.7203C535.206 35.0187 535.821 38.3611 535.821 41.7475C535.821 45.2658 535.163 48.6962 533.801 51.9946C532.483 55.293 530.595 58.1956 528.223 60.6585C525.852 63.1653 523.041 65.1883 519.747 66.6836C516.453 68.1789 512.851 68.9705 508.986 68.9705Z" fill="white"/>
</mask>
<g mask="url(#mask15_3363_7195)">
<path d="M702.41 14.3477H482.328V84.6261H702.41V14.3477Z" fill="url(#paint14_linear_3363_7195)"/>
</g>
<defs>
<linearGradient id="paint0_linear_3363_7195" x1="206.379" y1="119.545" x2="206.379" y2="436.589" gradientUnits="userSpaceOnUse">
<stop stop-color="#3A72FF"/>
<stop offset="0.5" stop-color="#e8a111"/>
<stop offset="1" stop-color="#2596be"/>
</linearGradient>
<linearGradient id="paint1_linear_3363_7195" x1="474.487" y1="116.688" x2="474.487" y2="435.403" gradientUnits="userSpaceOnUse">
<stop stop-color="#3A72FF"/>
<stop offset="0.5" stop-color="#e8a111"/>
<stop offset="1" stop-color="#2596be"/>
</linearGradient>
<linearGradient id="paint2_linear_3363_7195" x1="747.076" y1="119.545" x2="747.076" y2="436.589" gradientUnits="userSpaceOnUse">
<stop stop-color="#3A72FF"/>
<stop offset="0.5" stop-color="#e8a111"/>
<stop offset="1" stop-color="#2596be"/>
</linearGradient>
<linearGradient id="paint3_linear_3363_7195" x1="480.942" y1="529.914" x2="480.942" y2="594.343" gradientUnits="userSpaceOnUse">
<stop stop-color="#3A72FF"/>
<stop offset="0.5" stop-color="#e8a111"/>
<stop offset="1" stop-color="#2596be"/>
</linearGradient>
<linearGradient id="paint4_linear_3363_7195" x1="163.03" y1="454.842" x2="163.03" y2="478.327" gradientUnits="userSpaceOnUse">
<stop stop-color="#3A72FF"/>
<stop offset="0.5" stop-color="#e8a111"/>
<stop offset="1" stop-color="#2596be"/>
</linearGradient>
<linearGradient id="paint5_linear_3363_7195" x1="382.299" y1="420.494" x2="382.299" y2="512.762" gradientUnits="userSpaceOnUse">
<stop stop-color="#3A72FF"/>
<stop offset="0.5" stop-color="#e8a111"/>
<stop offset="1" stop-color="#2596be"/>
</linearGradient>
<linearGradient id="paint6_linear_3363_7195" x1="818.553" y1="454.84" x2="818.553" y2="478.325" gradientUnits="userSpaceOnUse">
<stop stop-color="#3A72FF"/>
<stop offset="0.5" stop-color="#e8a111"/>
<stop offset="1" stop-color="#2596be"/>
</linearGradient>
<linearGradient id="paint7_linear_3363_7195" x1="598.559" y1="420.494" x2="598.559" y2="512.762" gradientUnits="userSpaceOnUse">
<stop stop-color="#3A72FF"/>
<stop offset="0.5" stop-color="#e8a111"/>
<stop offset="1" stop-color="#2596be"/>
</linearGradient>
<linearGradient id="paint8_linear_3363_7195" x1="398.528" y1="473.27" x2="398.528" y2="487.431" gradientUnits="userSpaceOnUse">
<stop stop-color="#3A72FF"/>
<stop offset="0.5" stop-color="#e8a111"/>
<stop offset="1" stop-color="#2596be"/>
</linearGradient>
<linearGradient id="paint9_linear_3363_7195" x1="398.528" y1="445.826" x2="398.528" y2="459.987" gradientUnits="userSpaceOnUse">
<stop stop-color="#3A72FF"/>
<stop offset="0.5" stop-color="#e8a111"/>
<stop offset="1" stop-color="#2596be"/>
</linearGradient>
<linearGradient id="paint10_linear_3363_7195" x1="582.333" y1="475.248" x2="582.333" y2="485.451" gradientUnits="userSpaceOnUse">
<stop stop-color="#3A72FF"/>
<stop offset="0.5" stop-color="#e8a111"/>
<stop offset="1" stop-color="#2596be"/>
</linearGradient>
<linearGradient id="paint11_linear_3363_7195" x1="582.333" y1="448.068" x2="582.333" y2="457.832" gradientUnits="userSpaceOnUse">
<stop stop-color="#3A72FF"/>
<stop offset="0.5" stop-color="#e8a111"/>
<stop offset="1" stop-color="#2596be"/>
</linearGradient>
<linearGradient id="paint12_linear_3363_7195" x1="566.3" y1="475.248" x2="566.3" y2="485.451" gradientUnits="userSpaceOnUse">
<stop stop-color="#3A72FF"/>
<stop offset="0.5" stop-color="#e8a111"/>
<stop offset="1" stop-color="#2596be"/>
</linearGradient>
<linearGradient id="paint13_linear_3363_7195" x1="566.3" y1="448.068" x2="566.3" y2="457.788" gradientUnits="userSpaceOnUse">
<stop stop-color="#3A72FF"/>
<stop offset="0.5" stop-color="#e8a111"/>
<stop offset="1" stop-color="#2596be"/>
</linearGradient>
<linearGradient id="paint14_linear_3363_7195" x1="592.356" y1="51.1047" x2="592.356" y2="-61.1473" gradientUnits="userSpaceOnUse">
<stop stop-color="#093BBB"/>
<stop offset="1" stop-color="white"/>
</linearGradient>
</defs>
</svg>