<svg width="24" height="24" viewBox="0 0 24 24" fill="none" xmlns="http://www.w3.org/2000/svg">
<path d="M3.51471 3.51471C5.78119 1.24823 8.79474 0 12 0C15.2053 0 18.2188 1.24823 20.4853 3.51471C22.7518 5.78119 24 8.79474 24 12C24 15.2053 22.7518 18.2188 20.4853 20.4853C18.2188 22.7518 15.2053 24 12 24C8.79474 24 5.78119 22.7518 3.51471 20.4853C1.24823 18.2188 0 15.2053 0 12C0 8.79474 1.24823 5.78119 3.51471 3.51471ZM18.7919 20.1233C18.3957 16.7139 15.4644 14.0815 12 14.0815C10.1737 14.0815 8.45636 14.7931 7.16455 16.0847C6.07324 17.1762 5.38495 18.6013 5.20789 20.1231C7.0481 21.6643 9.41748 22.5938 12 22.5938C14.5825 22.5938 16.9517 21.6645 18.7919 20.1233ZM12 12.6332C14.0096 12.6332 15.6447 10.998 15.6447 8.98846C15.6447 6.9787 14.0096 5.34375 12 5.34375C9.99042 5.34375 8.35529 6.9787 8.35529 8.98846C8.35529 10.998 9.99042 12.6332 12 12.6332ZM3.99756 18.9344C4.3559 17.4897 5.10315 16.1576 6.17029 15.0905C7.03455 14.2262 8.05701 13.5778 9.17212 13.1715C7.8316 12.2624 6.94904 10.7265 6.94904 8.98846C6.94904 6.20343 9.21497 3.9375 12 3.9375C14.785 3.9375 17.051 6.20343 17.051 8.98846C17.051 10.7274 16.1677 12.2639 14.826 13.1728C15.852 13.5467 16.8014 14.1248 17.6182 14.8857C18.8011 15.9873 19.6225 17.3919 20.0034 18.9333C21.6163 17.0739 22.5938 14.649 22.5938 12C22.5938 6.15857 17.8414 1.40625 12 1.40625C6.15857 1.40625 1.40625 6.15857 1.40625 12C1.40625 14.6495 2.38403 17.075 3.99756 18.9344Z" fill="#020202"/>
</svg>